# xmcd
#
# Track frame offsets:
# 150
# 21792
# 40420
# 59154
# 77111
# 93436
# 108673
# 125361
# 146507
# 170913
# 190622
# 208811
# 229152
# 246735
# 271110
# 290506
# 310194
#
# Disc length: 4380 seconds
#
#
# Revision: 0
# Processed by: cddbd v1.5.2PL0 Copyright (c) Steve Scherf et al.
# Submitted via: FreeRIP 2.944 
#
DISCID=05111a11
DTITLE=Mary J Blidge - The Breakthrough
DYEAR=2005
DGENRE=R&B
TTITLE0=No one will done
TTITLE1=Enough cryin
TTITLE2=About you
TTITLE3=Be without you
TTITLE4=Gonna Breakthrough
TTITLE5=Good woman down
TTITLE6=Take me as
TTITLE7=Baggage
TTITLE8=Can´t hide from luv
TTITLE9=MJB Da MVP
TTITLE10=Can´t get enough
TTITLE11=Ain´t really love
TTITLE12=I found my everything
TTITLE13=Father in you
TTITLE14=Alone
TTITLE15=One Mary J. Blidge
TTITLE16=So lady
EXTD=
EXTT0=
EXTT1=
EXTT2=
EXTT3=
EXTT4=
EXTT5=
EXTT6=
EXTT7=
EXTT8=
EXTT9=
EXTT10=
EXTT11=
EXTT12=
EXTT13=
EXTT14=
EXTT15=
EXTT16=
PLAYORDER=
